<svg width="155" height="31" viewBox="0 0 155 31" fill="none" xmlns="http://www.w3.org/2000/svg">
<path d="M14.28 30.84C14.1467 30.84 14.08 30.7067 14.08 30.44C14.08 29.56 14.8267 27.32 16.32 23.72C16.7733 22.68 17.2267 21.64 17.68 20.6C18.1333 19.56 18.5733 18.52 19 17.48L20.84 12.08C21.1333 11.1733 21.36 10.4 21.52 9.76C21.7067 9.09333 21.8 8.54667 21.8 8.12C21.8 6.25333 21.2667 4.85333 20.2 3.92C19.1333 2.96 17.72 2.48 15.96 2.48C14.3067 2.48 12.6667 2.85333 11.04 3.6C9.44 4.32 7.97333 5.30667 6.64 6.56C5.33333 7.81333 4.28 9.21333 3.48 10.76C2.33333 12.9467 1.76 14.9467 1.76 16.76C1.76 18.0133 2.06667 19.1467 2.68 20.16C3.29333 21.1733 4.09333 21.8667 5.08 22.24C5.77333 22.48 6.45333 22.6 7.12 22.6C8.05333 22.6 8.92 22.4 9.72 22C10.52 21.5733 11.16 20.9867 11.64 20.24C12.1467 19.4933 12.4 18.6533 12.4 17.72C12.4 17.6133 12.4 17.5067 12.4 17.4C12.4 17.2667 12.3867 17.1467 12.36 17.04C12.2533 16.72 12.3333 16.56 12.6 16.56C12.8933 16.56 13.0533 16.7733 13.08 17.2C13.1067 17.3067 13.12 17.4133 13.12 17.52C13.1467 17.6267 13.16 17.7467 13.16 17.88C13.16 18.84 12.84 19.7333 12.2 20.56C11.56 21.3867 10.7333 22.0667 9.72 22.6C8.73333 23.1067 7.70667 23.36 6.64 23.36C5.54667 23.36 4.49333 23.0933 3.48 22.56C1.32 21.3867 0.24 19.3467 0.24 16.44C0.24 14.36 0.8 12.3467 1.92 10.4C2.93333 8.64 4.25333 7.10667 5.88 5.8C7.50667 4.49333 9.29333 3.48 11.24 2.76C13.1867 2.01333 15.12 1.64 17.04 1.64C18.3733 1.64 19.5733 1.85333 20.64 2.28C21.7067 2.68 22.5467 3.30667 23.16 4.16C23.8 4.98667 24.12 6.05333 24.12 7.36C24.12 9.84 23 13.56 20.76 18.52C18.2 24.1467 16.92 27.3067 16.92 28C16.92 28.1867 16.9867 28.2533 17.12 28.2C17.8133 27.7467 20.9467 24.1733 26.52 17.48C29.3733 14.0667 31.7867 11.3067 33.76 9.2C35.76 7.06667 37.3333 5.58667 38.48 4.76C39.4933 3.98667 40.3733 3.36 41.12 2.88C41.8667 2.37333 42.4667 1.98667 42.92 1.72C44.5733 0.813332 46.0933 0.359998 47.48 0.359998C48.0933 0.359998 48.56 0.426665 48.88 0.559998C49.2267 0.666665 49.4 0.986665 49.4 1.52C49.4 1.86666 49.28 2.04 49.04 2.04C48.96 2.04 48.7733 1.98666 48.48 1.88C48.1867 1.74666 47.8933 1.68 47.6 1.68C46.1867 1.68 44.7067 2.09333 43.16 2.92C40.0667 4.57333 36.52 7.53333 32.52 11.8C31.3733 13.0267 30.0267 14.5467 28.48 16.36C26.96 18.1733 25.24 20.2933 23.32 22.72C20.28 26.56 18.4533 28.6533 17.84 29C16.6933 29.6667 15.8267 30.1333 15.24 30.4C14.68 30.6933 14.36 30.84 14.28 30.84ZM31.6972 28.2C31.0572 28.2 30.4172 27.9733 29.7772 27.52C29.1372 27.0667 28.7772 26.5333 28.6972 25.92C28.4305 23.8667 29.7239 21.4267 32.5772 18.6C35.4039 15.7733 37.9505 14.36 40.2172 14.36C40.8305 14.36 41.3105 14.5067 41.6572 14.8C41.8439 14.9867 41.9772 15.24 42.0572 15.56C42.1639 15.88 42.2439 16.04 42.2972 16.04C42.4039 16.04 42.4972 16.0267 42.5772 16C42.6572 15.9467 42.7505 15.92 42.8572 15.92C43.1772 15.92 43.4572 16.04 43.6972 16.28C43.9372 16.52 44.0705 16.7333 44.0972 16.92C44.1239 16.9733 43.2705 18.2933 41.5372 20.88C39.8039 23.4133 39.0172 25.1333 39.1772 26.04C39.3105 26.6533 39.6039 26.96 40.0572 26.96C41.4439 26.96 43.9772 24.6667 47.6572 20.08C47.7372 19.9733 47.8172 19.92 47.8972 19.92C48.0305 19.92 48.0972 20.0133 48.0972 20.2C48.0972 20.4133 47.9772 20.68 47.7372 21C44.3505 25.56 41.7505 27.84 39.9372 27.84C39.6972 27.84 39.4705 27.8 39.2572 27.72C38.0839 27.2667 37.4972 26.3867 37.4972 25.08C37.4972 24.6267 37.5505 24.1733 37.6572 23.72L35.1772 26.12C34.4305 26.8667 33.7505 27.4 33.1372 27.72C32.5505 28.04 32.0705 28.2 31.6972 28.2ZM31.3372 27.32C32.8839 27.32 34.9905 25.6267 37.6572 22.24L41.8972 16.4C41.6839 16.0267 41.3372 15.84 40.8572 15.84C39.2305 15.84 37.0305 17.1467 34.2572 19.76C31.3772 22.4267 30.0839 24.6267 30.3772 26.36C30.5105 27 30.8305 27.32 31.3372 27.32ZM48.9416 28.08C48.1682 28.08 47.4482 27.8933 46.7816 27.52C46.1149 27.12 45.7816 26.4667 45.7816 25.56C45.7816 24.3067 46.2216 22.8133 47.1016 21.08C48.0082 19.3467 49.0349 17.5467 50.1816 15.68C53.3016 10.6133 55.5149 8.08 56.8216 8.08C57.0882 8.08 57.3549 8.18667 57.6216 8.4C57.9149 8.58667 58.0749 8.8 58.1016 9.04L55.3016 12.8C54.2082 14.2667 53.2216 15.6267 52.3416 16.88C51.4616 18.1067 50.7016 19.2133 50.0616 20.2C49.7416 20.7067 49.3816 21.28 48.9816 21.92C48.5816 22.56 48.2216 23.2267 47.9016 23.92C47.6082 24.5867 47.4616 25.2667 47.4616 25.96C47.4616 26.28 47.5549 26.5733 47.7416 26.84C47.9282 27.08 48.2616 27.2 48.7416 27.2C49.5949 27.2 50.7149 26.7467 52.1016 25.84C53.4882 24.9067 54.8616 23.6267 56.2216 22C56.3549 21.84 56.5016 21.6933 56.6616 21.56C56.8216 21.4267 56.9549 21.36 57.0616 21.36C57.1949 21.36 57.2616 21.44 57.2616 21.6C57.2616 21.68 57.1682 21.84 56.9816 22.08C56.8216 22.2933 56.6882 22.4667 56.5816 22.6L55.6216 23.68C55.0882 24.2667 54.4482 24.9067 53.7016 25.6C52.9816 26.2933 52.2082 26.88 51.3816 27.36C50.5816 27.84 49.7682 28.08 48.9416 28.08ZM58.0681 28.52C57.2148 28.52 56.4415 28.2533 55.7481 27.72C55.0548 27.16 54.7081 26.4267 54.7081 25.52C54.7081 23.6267 55.8681 21.4667 58.1881 19.04C60.5615 16.5867 62.6815 15.36 64.5481 15.36C65.1615 15.36 65.6548 15.5333 66.0281 15.88C66.4281 16.2 66.6281 16.6 66.6281 17.08C66.6281 18.5733 65.4415 20.04 63.0681 21.48C60.9615 22.76 59.1881 23.4 57.7481 23.4C57.5348 23.4 57.3481 23.3733 57.1881 23.32C56.7881 24.04 56.5881 24.8 56.5881 25.6C56.5881 26.9867 57.2415 27.68 58.5481 27.68C59.8815 27.68 61.6015 26.7867 63.7081 25C65.3348 23.6933 66.7215 22.3067 67.8681 20.84C68.1081 20.52 68.3215 20.36 68.5081 20.36C68.6681 20.36 68.7481 20.44 68.7481 20.6C68.7481 20.76 68.6415 20.9867 68.4281 21.28C67.6815 22.2667 66.8815 23.1733 66.0281 24C65.1748 24.8267 64.2548 25.5867 63.2681 26.28C61.2148 27.7733 59.4815 28.52 58.0681 28.52ZM58.3081 22.52C59.3215 22.52 60.6415 22.0133 62.2681 21C62.8015 20.6267 63.3215 20.2133 63.8281 19.76C64.3615 19.28 64.7881 18.8 65.1081 18.32C65.4548 17.84 65.6281 17.4133 65.6281 17.04C65.6281 16.6933 65.3481 16.52 64.7881 16.52C63.9881 16.52 62.8681 17.12 61.4281 18.32C60.7348 18.9067 60.0681 19.5467 59.4281 20.24C58.7881 20.9333 58.2415 21.6667 57.7881 22.44C57.9481 22.4933 58.1215 22.52 58.3081 22.52ZM76.9016 28.08C76.1816 28.08 75.6749 27.88 75.3816 27.48C75.0882 27.0533 74.9416 26.5333 74.9416 25.92C74.9416 24.3733 75.4749 22.72 76.5416 20.96L79.1016 16.8C77.2882 18.1333 75.4882 19.8 73.7016 21.8C73.2216 22.3333 72.6749 22.96 72.0616 23.68C71.4749 24.4 70.8216 25.2267 70.1016 26.16C69.1416 27.4133 68.5682 28.04 68.3816 28.04C68.0082 28.04 67.7016 27.88 67.4616 27.56C67.2216 27.2133 67.1016 26.9067 67.1016 26.64C67.1016 26.4267 67.1682 26.04 67.3016 25.48C67.4349 24.8933 67.5949 24.3867 67.7816 23.96C67.9682 23.5067 68.1549 23.0667 68.3416 22.64C68.5549 22.1867 68.7549 21.7467 68.9416 21.32L66.5416 23.84C66.4882 23.8933 66.3282 24.0533 66.0616 24.32C65.7949 24.5867 65.5816 24.72 65.4216 24.72C65.2882 24.72 65.2216 24.6267 65.2216 24.44C65.2216 24.3867 65.2482 24.32 65.3016 24.24C65.3282 24.1333 65.4082 24.0133 65.5416 23.88C65.9416 23.48 66.3549 23.0533 66.7816 22.6C67.2082 22.1467 67.6482 21.6267 68.1016 21.04C68.3416 20.7467 68.7016 20.3067 69.1816 19.72C69.6616 19.1067 70.1816 18.4533 70.7416 17.76C71.3282 17.0667 71.8749 16.4267 72.3816 15.84C72.5149 15.6533 72.6616 15.5333 72.8216 15.48C72.9816 15.4 73.0882 15.36 73.1416 15.36C73.8616 15.36 74.2216 15.64 74.2216 16.2C74.2216 16.36 74.1816 16.52 74.1016 16.68C71.7016 19.9867 70.2616 22.5067 69.7816 24.24C72.8749 21.1467 75.3549 18.8267 77.2216 17.28C79.1149 15.7067 80.4616 14.92 81.2616 14.92C81.6882 14.92 82.0082 14.9867 82.2216 15.12C82.4616 15.2533 82.5816 15.5067 82.5816 15.88C82.5816 16.0133 82.5682 16.12 82.5416 16.2C82.4616 16.3867 81.9149 17.1333 80.9016 18.44C80.2882 19.1867 79.7416 19.8667 79.2616 20.48C78.8082 21.0933 78.4349 21.6267 78.1416 22.08C77.6616 22.8267 77.3016 23.5333 77.0616 24.2C76.8216 24.84 76.7016 25.3867 76.7016 25.84C76.7016 26.0267 76.7282 26.2533 76.7816 26.52C76.8349 26.7867 76.9949 26.92 77.2616 26.92C77.8749 26.92 78.8349 26.3867 80.1416 25.32C80.7549 24.7867 81.3282 24.2533 81.8616 23.72C82.3949 23.16 82.9016 22.6133 83.3816 22.08C83.4882 21.9733 83.6616 21.7733 83.9016 21.48C84.1416 21.16 84.2882 21 84.3416 21C84.4482 21 84.5016 21.1067 84.5016 21.32C84.5016 21.4267 84.4349 21.6133 84.3016 21.88C84.1949 22.12 84.0749 22.3067 83.9416 22.44C83.6482 22.7867 83.2082 23.2667 82.6216 23.88C82.0616 24.4933 81.4216 25.12 80.7016 25.76C80.0082 26.4 79.3282 26.9467 78.6616 27.4C77.9949 27.8533 77.4082 28.08 76.9016 28.08ZM85.7144 28.24C84.861 28.24 84.181 28.04 83.6744 27.64C83.1944 27.2133 82.9544 26.4667 82.9544 25.4C82.9544 24.7867 83.141 24.0133 83.5144 23.08C83.8877 22.12 84.3544 21.0933 84.9144 20C85.4744 18.9067 86.0344 17.8267 86.5944 16.76C86.2477 16.84 85.941 16.88 85.6744 16.88C84.8744 16.88 84.4744 16.5733 84.4744 15.96C84.4744 15.6667 84.581 15.44 84.7944 15.28C85.0344 15.12 85.2477 15.0267 85.4344 15C85.4344 15 85.461 15 85.5144 15C85.5944 15 85.6877 14.9867 85.7944 14.96H88.1144C88.5944 14.3467 89.0877 13.6933 89.5944 13C90.3144 12.0933 90.8877 11.56 91.3144 11.4H91.4344C91.621 11.4 91.8877 11.4933 92.2344 11.68C92.661 11.92 92.8744 12.16 92.8744 12.4C92.8744 12.7467 92.2344 13.64 90.9544 15.08C91.1944 15.1067 91.541 15.12 91.9944 15.12C92.4477 15.12 93.0077 15.12 93.6744 15.12C93.9944 15.12 94.4477 15.12 95.0344 15.12C95.6477 15.12 96.2744 15.12 96.9144 15.12C97.581 15.0933 98.1544 15.08 98.6344 15.08C99.1144 15.0533 99.381 15.04 99.4344 15.04C99.5144 15.0667 99.5544 15.1067 99.5544 15.16C99.5544 15.4 97.981 15.72 94.8344 16.12C93.0477 16.36 91.6744 16.5467 90.7144 16.68C89.781 16.8133 89.2744 16.8933 89.1944 16.92C88.821 17.24 88.3677 17.7867 87.8344 18.56C87.301 19.3333 86.7677 20.2 86.2344 21.16C85.701 22.12 85.2477 23.04 84.8744 23.92C84.5277 24.7733 84.3544 25.44 84.3544 25.92C84.3544 26.3467 84.5144 26.7067 84.8344 27C85.1544 27.2667 85.6744 27.4 86.3944 27.4C86.8744 27.4 87.4477 27.2933 88.1144 27.08C88.781 26.8667 89.4077 26.6267 89.9944 26.36C90.6077 26.0667 91.0477 25.84 91.3144 25.68C92.0077 25.2533 92.7677 24.6933 93.5944 24C94.4477 23.28 95.2877 22.4667 96.1144 21.56C96.4877 21.1867 96.741 21 96.8744 21C96.9544 21 96.9944 21.0533 96.9944 21.16C96.9944 21.3733 96.7944 21.72 96.3944 22.2C95.7544 22.9733 95.0344 23.72 94.2344 24.44C93.461 25.1333 92.5944 25.7733 91.6344 26.36C90.541 27.0267 89.4877 27.5067 88.4744 27.8C87.4877 28.0933 86.5677 28.24 85.7144 28.24ZM104.349 14.24C103.896 14.24 103.496 14.0933 103.149 13.8C102.829 13.5067 102.669 13.1733 102.669 12.8C102.669 12.0533 103.176 11.68 104.189 11.68C104.563 11.68 104.936 11.8133 105.309 12.08C105.683 12.32 105.869 12.6267 105.869 13C105.869 13.32 105.696 13.6133 105.349 13.88C105.003 14.12 104.669 14.24 104.349 14.24ZM96.9494 28.44C96.3627 28.44 95.8827 28.2533 95.5094 27.88C95.1094 27.48 94.9094 26.7867 94.9094 25.8C94.9094 25.24 95.0427 24.6 95.3094 23.88C95.5494 23.1333 95.856 22.3867 96.2294 21.64C96.6294 20.8933 97.016 20.2267 97.3894 19.64C98.8827 17.2133 100.109 15.9867 101.069 15.96C101.309 15.96 101.603 16.0667 101.949 16.28C102.296 16.4667 102.469 16.68 102.469 16.92C102.469 16.92 101.456 18.2267 99.4294 20.84C97.4294 23.4267 96.4294 25.2667 96.4294 26.36C96.4294 27.2133 96.7627 27.64 97.4294 27.64C97.856 27.64 98.4027 27.4667 99.0694 27.12C99.7627 26.7467 100.483 26.28 101.229 25.72C101.976 25.16 102.683 24.56 103.349 23.92C104.043 23.28 104.603 22.6933 105.029 22.16C105.296 21.8133 105.523 21.5733 105.709 21.44C105.923 21.3067 106.056 21.24 106.109 21.24C106.216 21.24 106.269 21.32 106.269 21.48C106.269 21.6133 106.109 21.88 105.789 22.28C105.496 22.68 105.083 23.1467 104.549 23.68C103.909 24.32 103.203 25.0133 102.429 25.76C101.656 26.5067 100.816 27.1467 99.9094 27.68C99.0027 28.1867 98.016 28.44 96.9494 28.44ZM115.133 28.08C114.413 28.08 113.906 27.88 113.613 27.48C113.319 27.0533 113.173 26.5333 113.173 25.92C113.173 24.3733 113.706 22.72 114.773 20.96L117.333 16.8C115.519 18.1333 113.719 19.8 111.933 21.8C111.453 22.3333 110.906 22.96 110.293 23.68C109.706 24.4 109.053 25.2267 108.333 26.16C107.373 27.4133 106.799 28.04 106.613 28.04C106.239 28.04 105.933 27.88 105.693 27.56C105.453 27.2133 105.333 26.9067 105.333 26.64C105.333 26.4267 105.399 26.04 105.533 25.48C105.666 24.8933 105.826 24.3867 106.013 23.96C106.199 23.5067 106.386 23.0667 106.573 22.64C106.786 22.1867 106.986 21.7467 107.173 21.32L104.773 23.84C104.719 23.8933 104.559 24.0533 104.293 24.32C104.026 24.5867 103.813 24.72 103.653 24.72C103.519 24.72 103.453 24.6267 103.453 24.44C103.453 24.3867 103.479 24.32 103.533 24.24C103.559 24.1333 103.639 24.0133 103.773 23.88C104.173 23.48 104.586 23.0533 105.013 22.6C105.439 22.1467 105.879 21.6267 106.333 21.04C106.573 20.7467 106.933 20.3067 107.413 19.72C107.893 19.1067 108.413 18.4533 108.973 17.76C109.559 17.0667 110.106 16.4267 110.613 15.84C110.746 15.6533 110.893 15.5333 111.053 15.48C111.213 15.4 111.319 15.36 111.373 15.36C112.093 15.36 112.453 15.64 112.453 16.2C112.453 16.36 112.413 16.52 112.333 16.68C109.933 19.9867 108.493 22.5067 108.013 24.24C111.106 21.1467 113.586 18.8267 115.453 17.28C117.346 15.7067 118.693 14.92 119.493 14.92C119.919 14.92 120.239 14.9867 120.453 15.12C120.693 15.2533 120.813 15.5067 120.813 15.88C120.813 16.0133 120.799 16.12 120.773 16.2C120.693 16.3867 120.146 17.1333 119.133 18.44C118.519 19.1867 117.973 19.8667 117.493 20.48C117.039 21.0933 116.666 21.6267 116.373 22.08C115.893 22.8267 115.533 23.5333 115.293 24.2C115.053 24.84 114.933 25.3867 114.933 25.84C114.933 26.0267 114.959 26.2533 115.013 26.52C115.066 26.7867 115.226 26.92 115.493 26.92C116.106 26.92 117.066 26.3867 118.373 25.32C118.986 24.7867 119.559 24.2533 120.093 23.72C120.626 23.16 121.133 22.6133 121.613 22.08C121.719 21.9733 121.893 21.7733 122.133 21.48C122.373 21.16 122.519 21 122.573 21C122.679 21 122.733 21.1067 122.733 21.32C122.733 21.4267 122.666 21.6133 122.533 21.88C122.426 22.12 122.306 22.3067 122.173 22.44C121.879 22.7867 121.439 23.2667 120.853 23.88C120.293 24.4933 119.653 25.12 118.933 25.76C118.239 26.4 117.559 26.9467 116.893 27.4C116.226 27.8533 115.639 28.08 115.133 28.08ZM123.506 28.52C122.652 28.52 121.879 28.2533 121.186 27.72C120.492 27.16 120.146 26.4267 120.146 25.52C120.146 23.6267 121.306 21.4667 123.626 19.04C125.999 16.5867 128.119 15.36 129.986 15.36C130.599 15.36 131.092 15.5333 131.466 15.88C131.866 16.2 132.066 16.6 132.066 17.08C132.066 18.5733 130.879 20.04 128.506 21.48C126.399 22.76 124.626 23.4 123.186 23.4C122.972 23.4 122.786 23.3733 122.626 23.32C122.226 24.04 122.026 24.8 122.026 25.6C122.026 26.9867 122.679 27.68 123.986 27.68C125.319 27.68 127.039 26.7867 129.146 25C130.772 23.6933 132.159 22.3067 133.306 20.84C133.546 20.52 133.759 20.36 133.946 20.36C134.106 20.36 134.186 20.44 134.186 20.6C134.186 20.76 134.079 20.9867 133.866 21.28C133.119 22.2667 132.319 23.1733 131.466 24C130.612 24.8267 129.692 25.5867 128.706 26.28C126.652 27.7733 124.919 28.52 123.506 28.52ZM123.746 22.52C124.759 22.52 126.079 22.0133 127.706 21C128.239 20.6267 128.759 20.2133 129.266 19.76C129.799 19.28 130.226 18.8 130.546 18.32C130.892 17.84 131.066 17.4133 131.066 17.04C131.066 16.6933 130.786 16.52 130.226 16.52C129.426 16.52 128.306 17.12 126.866 18.32C126.172 18.9067 125.506 19.5467 124.866 20.24C124.226 20.9333 123.679 21.6667 123.226 22.44C123.386 22.4933 123.559 22.52 123.746 22.52ZM134.419 16.28C134.312 16.2533 134.259 16.2133 134.259 16.16C134.259 16.16 134.566 15.8133 135.179 15.12C135.819 14.4267 136.099 13.8 136.019 13.24C135.992 12.9467 135.806 12.6933 135.459 12.48C135.112 12.24 134.939 12 134.939 11.76C134.939 10.96 135.326 10.56 136.099 10.56C136.472 10.56 136.846 10.6933 137.219 10.96C137.592 11.2 137.779 11.5067 137.779 11.88C137.779 13.0267 137.299 14.1067 136.339 15.12C135.486 16 134.846 16.3867 134.419 16.28ZM142.686 28.08C141.433 28.08 140.499 27.6667 139.886 26.84C139.299 26.0133 138.819 24.8667 138.446 23.4C137.966 23.88 137.633 24.12 137.446 24.12C137.313 24.12 137.246 24.0133 137.246 23.8C137.246 23.64 137.313 23.4933 137.446 23.36C137.446 23.36 137.779 22.9467 138.446 22.12C139.139 21.2933 140.299 20.1333 141.926 18.64L146.966 13.92C147.659 13.2533 148.206 12.7467 148.606 12.4C149.033 12.0533 149.339 11.88 149.526 11.88C150.379 11.88 150.806 12.2 150.806 12.84C150.806 13.16 150.633 13.5333 150.286 13.96C150.019 14.28 149.819 14.5333 149.686 14.72C149.579 14.88 149.513 14.9733 149.486 15C149.006 15.8267 148.566 17.3067 148.166 19.44C147.873 21.0133 147.619 22.3067 147.406 23.32C147.193 24.3333 147.019 25.0667 146.886 25.52C148.006 25.4933 149.113 25.1467 150.206 24.48C151.299 23.8133 152.473 22.72 153.726 21.2C153.779 21.1467 153.859 21.0667 153.966 20.96C154.073 20.8533 154.179 20.8 154.286 20.8C154.446 20.8 154.526 20.8667 154.526 21C154.526 21.1333 154.486 21.2667 154.406 21.4C154.326 21.5333 154.246 21.6533 154.166 21.76C153.339 22.7467 152.566 23.56 151.846 24.2C151.126 24.8133 150.366 25.3067 149.566 25.68C148.766 26.0267 147.819 26.32 146.726 26.56L145.446 27.4C145.099 27.64 144.686 27.8133 144.206 27.92C143.726 28.0267 143.219 28.08 142.686 28.08ZM143.166 26.04C143.779 26.04 144.286 25.8933 144.686 25.6C144.979 25.44 145.259 25 145.526 24.28C145.819 23.5333 146.099 22.6133 146.366 21.52C146.579 20.5867 146.739 19.68 146.846 18.8C146.979 17.8933 147.099 17.0267 147.206 16.2L147.366 14.84C146.753 15.2933 145.979 15.9467 145.046 16.8C144.113 17.6533 143.193 18.5467 142.286 19.48C141.379 20.4133 140.793 21.1067 140.526 21.56C140.259 21.9867 140.113 22.3067 140.086 22.52C139.979 23.5867 140.233 24.44 140.846 25.08C141.486 25.72 142.259 26.04 143.166 26.04Z" fill="#6A0808"/>
</svg>
